<?xml version="1.0" encoding="UTF-8" standalone="no"?>
<svg width="102px" height="40px" viewBox="0 0 102 40" version="1.1" xmlns="http://www.w3.org/2000/svg" xmlns:xlink="http://www.w3.org/1999/xlink" xmlns:sketch="http://www.bohemiancoding.com/sketch/ns">
    <!-- Generator: Sketch 3.3.3 (12081) - http://www.bohemiancoding.com/sketch -->
    <title>Siroop_Logo</title>
    <desc>Created with Sketch.</desc>
    <defs></defs>
    <g id="Page-1" stroke="none" stroke-width="1" fill="none" fill-rule="evenodd" sketch:type="MSPage">
        <g id="Siroop_Logo" sketch:type="MSLayerGroup">
            <path d="M58.756,6.911 C54.145,6.911 50.395,10.598 50.395,15.131 C50.395,19.663 54.145,23.351 58.756,23.351 C63.366,23.351 67.116,19.663 67.116,15.131 C67.116,10.598 63.366,6.911 58.756,6.911 L58.756,6.911 Z M58.756,19.541 C56.389,19.541 54.463,17.562 54.463,15.131 C54.463,12.699 56.389,10.721 58.756,10.721 C61.122,10.721 63.047,12.699 63.047,15.131 C63.047,17.562 61.122,19.541 58.756,19.541 L58.756,19.541 Z" id="Fill-1" fill="#53C8DA" sketch:type="MSShapeGroup"></path>
            <path d="M77.612,6.939 C75.961,6.938 73.943,7.385 72.542,9.025 L72.542,7.4 L68.671,7.4 L68.671,28.869 L72.542,28.869 L72.542,21.539 C74.332,23.158 76.068,23.347 77.583,23.347 C82.193,23.347 85.227,19.964 85.227,15.127 C85.227,10.406 81.978,6.944 77.612,6.939 L77.612,6.939 Z M77.036,19.541 C74.668,19.541 72.743,17.562 72.743,15.131 C72.743,12.699 74.668,10.721 77.036,10.721 C79.402,10.721 81.327,12.699 81.327,15.131 C81.327,17.562 79.402,19.541 77.036,19.541 L77.036,19.541 Z" id="Fill-2" fill="#53C8DA" sketch:type="MSShapeGroup"></path>
            <path d="M29.019,7.638 C28.436,7.992 27.996,8.465 27.699,9.054 L27.64,9.054 L27.64,7.402 L23.99,7.402 L23.99,23.039 L27.847,23.039 L27.847,14.453 C27.847,12.074 28.747,10.883 30.547,10.883 C30.923,10.883 31.328,10.962 31.764,11.119 L32.357,7.402 C31.902,7.206 31.427,7.107 30.933,7.107 C30.24,7.107 29.603,7.284 29.019,7.638" id="Fill-3" fill="#53C8DA" sketch:type="MSShapeGroup"></path>
            <path d="M9.001,13.834 C6.905,13.244 5.594,12.826 5.07,12.58 C4.546,12.335 4.284,11.995 4.284,11.562 C4.284,11.169 4.507,10.83 4.951,10.544 C5.397,10.26 5.994,10.116 6.747,10.116 C7.715,10.116 8.452,10.333 8.957,10.766 C9.461,11.199 9.851,11.788 10.129,12.536 L13.333,11.562 C12.443,8.494 10.237,6.96 6.717,6.96 C4.877,6.96 3.428,7.432 2.37,8.376 C1.312,9.32 0.783,10.441 0.783,11.739 C0.783,12.9 1.208,13.829 2.059,14.527 C2.909,15.226 4.244,15.83 6.064,16.342 C6.262,16.401 6.549,16.479 6.925,16.578 C8.309,16.971 9.219,17.281 9.654,17.507 C10.089,17.733 10.306,18.072 10.306,18.525 C10.306,19.076 10.025,19.503 9.461,19.808 C8.897,20.114 8.141,20.265 7.192,20.265 C5.115,20.265 3.938,19.174 3.661,16.991 L0.19,17.876 C0.427,19.43 1.134,20.752 2.311,21.844 C3.487,22.936 5.163,23.481 7.34,23.481 C9.416,23.481 11.004,22.985 12.102,21.991 C13.199,20.999 13.748,19.872 13.748,18.614 C13.748,17.433 13.417,16.465 12.754,15.707 C12.092,14.95 10.841,14.326 9.001,13.834" id="Fill-5" fill="#53C8DA" sketch:type="MSShapeGroup"></path>
            <path d="M16.405,7.402 L20.262,7.402 L20.262,23.039 L16.405,23.039 L16.405,7.402 Z" id="Fill-6" fill="#53C8DA" sketch:type="MSShapeGroup"></path>
            <path d="M40.74,6.96 C36.142,6.96 32.401,10.638 32.401,15.159 C32.401,16.964 33.012,18.629 34.012,19.989 C35.483,21.992 40.74,26.842 40.74,26.842 C40.74,26.842 45.944,22.001 47.442,20.007 C48.513,18.582 49.078,17.003 49.078,15.159 C49.078,10.638 45.338,6.96 40.74,6.96 L40.74,6.96 Z M44.55,17.771 C43.838,18.933 40.739,21.949 40.739,21.949 C40.739,21.949 37.733,18.864 36.969,17.741 C36.433,16.954 36.183,16.088 36.183,15.102 C36.183,12.632 38.227,10.622 40.74,10.622 C43.252,10.622 45.296,12.632 45.296,15.102 C45.296,16.109 45.082,16.901 44.55,17.771 L44.55,17.771 Z" id="Fill-7" fill="#53C8DA" sketch:type="MSShapeGroup"></path>
            <path d="M40.739,12.701 C39.398,12.701 38.296,13.797 38.296,15.16 C38.296,16.464 39.398,17.561 40.739,17.561 C42.11,17.561 43.183,16.464 43.183,15.16 C43.183,13.797 42.11,12.701 40.739,12.701" id="Fill-8" fill="#53C8DA" sketch:type="MSShapeGroup"></path>
            <path d="M18.334,0.542 C16.972,0.542 15.852,1.655 15.852,3.04 C15.852,4.363 16.972,5.477 18.334,5.477 C19.726,5.477 20.815,4.363 20.815,3.04 C20.815,1.655 19.726,0.542 18.334,0.542" id="Fill-4" fill="#53C8DA" sketch:type="MSShapeGroup"></path>
        </g>
    </g>
</svg>
